<svg xmlns="http://www.w3.org/2000/svg" width="105" height="52" fill="none">
  <path fill="#FFBB00"
    d="M2.337 7.823a5.485 5.485 0 0 1 5.486-5.486h89.03a5.485 5.485 0 0 1 5.484 5.486v36.03a5.485 5.485 0 0 1-5.485 5.484H7.822a5.485 5.485 0 0 1-5.485-5.485z" />
  <path fill="#1B2A42" fill-rule="evenodd"
    d="M7.823 0h89.03a7.823 7.823 0 0 1 7.822 7.823v36.03a7.82 7.82 0 0 1-7.823 7.822H7.822A7.823 7.823 0 0 1 0 43.852V7.822A7.823 7.823 0 0 1 7.823 0m0 2.337a5.485 5.485 0 0 0-5.486 5.486v36.03a5.485 5.485 0 0 0 5.486 5.484h89.03a5.485 5.485 0 0 0 5.484-5.485V7.822a5.485 5.485 0 0 0-5.485-5.485z"
    clip-rule="evenodd" />
  <rect width="87.306" height="37.277" x="8.614" y="7.988" fill="#E6A500" rx="4.706" />
  <path fill="#CC9000" d="M27.579 26.627a6.213 6.213 0 1 1-12.426 0 6.213 6.213 0 0 1 12.426 0" />
  <path fill="#FFBB00" d="M88.4 26.627a6.213 6.213 0 1 1-12.426 0 6.213 6.213 0 0 1 12.425 0" />
  <path fill="#fff"
    d="M51.612 24.377c-4.66 0-4.66-1.4-4.66-2.237 0-1.082 1.634-2.236 4.66-2.236 2.761 0 3.23 1.427 3.262 2.277l2.33-.04h2.33c0-2.295-1.552-5.523-5.592-6.44v-2.48h-4.66v2.4c-4.591.74-6.989 3.638-6.989 6.52 0 2.504 1.212 6.71 9.32 6.71 4.659 0 4.659 1.511 4.659 2.236 0 .928-1.444 2.237-4.66 2.237-4.289 0-4.634-1.917-4.66-2.237h-4.659c0 2.053 1.54 5.71 6.99 6.531v2.416h4.66v-2.427c4.591-.74 6.989-3.64 6.989-6.52 0-2.505-1.212-6.71-9.32-6.71" />
</svg>