<svg xmlns="http://www.w3.org/2000/svg" xmlns:xlink="http://www.w3.org/1999/xlink" width="500" zoomAndPan="magnify" viewBox="0 0 375 374.999991" height="500" preserveAspectRatio="xMidYMid meet" version="1.0"><defs><g/><clipPath id="29422bff62"><path d="M 246 5.734375 L 360 5.734375 L 360 181.597656 L 246 181.597656 Z M 246 5.734375 " clip-rule="nonzero"/></clipPath><clipPath id="5f967dfae7"><path d="M 3 67 L 375 67 L 375 297.519531 L 3 297.519531 Z M 3 67 " clip-rule="nonzero"/></clipPath><clipPath id="ef61b342ac"><rect x="0" width="372" y="0" height="231"/></clipPath><clipPath id="d2239a5114"><path d="M 0 0.160156 L 270 0.160156 L 270 131 L 0 131 Z M 0 0.160156 " clip-rule="nonzero"/></clipPath><clipPath id="05b84a1399"><path d="M 0 7 L 104 7 L 104 107 L 0 107 Z M 0 7 " clip-rule="nonzero"/></clipPath><clipPath id="2438bf3821"><rect x="0" width="270" y="0" height="131"/></clipPath><clipPath id="05d0a09c9b"><rect x="0" width="375" y="0" height="298"/></clipPath></defs><g transform="matrix(1, 0, 0, 1, 0, 56)"><g clip-path="url(#05d0a09c9b)"><g clip-path="url(#29422bff62)"><path fill="#ffffff" d="M 324.058594 58.40625 L 353.351562 58.40625 C 355.765625 58.40625 357.832031 59.679688 358.914062 61.839844 C 359.992188 63.996094 359.785156 66.410156 358.347656 68.351562 L 280.941406 172.519531 C 280.324219 173.34375 279.644531 173.921875 278.71875 174.382812 L 266.382812 180.550781 C 264.558594 181.460938 262.59375 181.449219 260.769531 180.539062 L 255.808594 178.007812 C 253.074219 176.621094 251.761719 173.523438 252.6875 170.59375 L 270.933594 112.417969 L 252.328125 112.417969 C 250.363281 112.417969 248.691406 111.609375 247.460938 110.082031 C 246.238281 108.566406 245.816406 106.742188 246.238281 104.839844 L 265.792969 16.882812 C 266.21875 14.984375 267.347656 13.53125 269.082031 12.65625 L 281.429688 6.488281 C 282.355469 6.027344 283.238281 5.820312 284.269531 5.820312 L 346.050781 6.347656 C 348.390625 6.375 350.371094 7.570312 351.488281 9.613281 C 352.59375 11.65625 352.503906 13.980469 351.257812 15.933594 L 324.058594 58.40625 " fill-opacity="1" fill-rule="evenodd"/></g><path fill="#000000" d="M 286.492188 12.078125 L 346 12.578125 L 312.675781 64.640625 L 353.351562 64.640625 L 275.941406 168.808594 L 263.597656 174.976562 L 258.625 172.457031 L 279.425781 106.1875 L 252.328125 106.1875 L 271.871094 18.234375 L 284.214844 12.054688 L 286.492188 12.078125 " fill-opacity="1" fill-rule="evenodd"/><path fill="#ffbb00" d="M 340.875 15.355469 L 286.476562 14.890625 L 268.183594 97.183594 L 295.613281 97.183594 L 273.667969 167.125 L 347.722656 67.464844 L 307.496094 67.464844 L 340.875 15.355469 " fill-opacity="1" fill-rule="evenodd"/><g clip-path="url(#5f967dfae7)"><g transform="matrix(1, 0, 0, 1, 3, 67)"><g clip-path="url(#ef61b342ac)"><g fill="#ffffff" fill-opacity="1"><g transform="translate(43.701534, 141.205536)"><g><path d="M -17.46875 -0.046875 L -17.140625 -117.523438 L 53.621094 -120.527344 L 47.890625 -19.878906 L 29.015625 -20.953125 L 27.527344 -39.800781 L 83.28125 -44.199219 L 83.105469 19.140625 L -17.519531 18.859375 Z M 20.347656 0.0546875 L 1.441406 0.00390625 L 1.492188 -18.902344 L 64.304688 -18.730469 L 64.25 0.179688 L 45.34375 0.125 L 45.410156 -23.789062 L 64.316406 -23.734375 L 65.804688 -4.886719 L 8.90625 -0.398438 L 14.679688 -101.824219 L 33.558594 -100.75 L 34.359375 -81.859375 L 2.519531 -80.507812 L 1.714844 -99.398438 L 20.625 -99.34375 Z M 20.347656 0.0546875 "/></g></g></g><g fill="#ffffff" fill-opacity="1"><g transform="translate(106.797583, 141.818886)"><g><path d="M 59.871094 -95.894531 L 46.476562 22.480469 L -16.894531 17.683594 L -7.195312 -118.320312 L 62.183594 -116.332031 Z M 22.292969 -100.148438 L 41.082031 -98.019531 L 40.542969 -79.121094 L 9.835938 -80 L 10.375 -98.902344 L 29.238281 -97.554688 L 22.164062 1.59375 L 3.304688 0.25 L 4.730469 -18.605469 L 31.164062 -16.601562 L 29.734375 2.25 L 10.945312 0.125 Z M 22.292969 -100.148438 "/></g></g></g><g fill="#ffffff" fill-opacity="1"><g transform="translate(140.347466, 143.346118)"><g><path d="M -5.660156 -66.257812 L 2.753906 -119 L 114.039062 -103.4375 L 103.484375 -31.558594 L 64.359375 -36.964844 L 66.945312 -55.695312 L 85.636719 -52.839844 L 72.863281 30.773438 L 3.320312 19.675781 L 17.488281 -63.214844 L 36.128906 -60.03125 L 33.496094 -41.304688 L -8.695312 -47.238281 Z M 31.683594 -60.300781 L 13.011719 -63.28125 L 15.644531 -82.003906 L 58.046875 -76.042969 L 43.816406 7.203125 L 25.179688 4.015625 L 28.160156 -14.65625 L 60.027344 -9.570312 L 57.046875 9.101562 L 38.355469 6.246094 L 51.070312 -76.980469 L 90.089844 -71.585938 L 87.5 -52.855469 L 68.792969 -55.601562 L 73.859375 -90.097656 L 92.566406 -87.351562 L 89.949219 -68.625 L 15.886719 -78.980469 L 18.503906 -97.707031 L 37.175781 -94.726562 Z M 31.683594 -60.300781 "/></g></g></g><g fill="#ffffff" fill-opacity="1"><g transform="translate(215.121365, 155.248014)"><g><path d="M -15.460938 -4.226562 L 15.628906 -117.960938 L 117.457031 -92.464844 L 100.105469 -28.980469 L 42.351562 -42.609375 L 46.695312 -61.011719 L 64.933594 -56.027344 L 61.667969 -44.078125 L 43.429688 -49.0625 L 46.789062 -67.667969 L 99.28125 -58.195312 L 82.035156 4.890625 L 32.464844 -6.339844 L 36.644531 -24.78125 L 54.882812 -19.796875 L 51.578125 -7.707031 L 33.339844 -12.691406 L 37.039062 -31.234375 L 97.425781 -19.179688 L 80.789062 41.683594 L -20.445312 14.011719 Z M 21.019531 5.746094 L 2.777344 0.757812 L 7.765625 -17.480469 L 72.523438 0.222656 L 67.535156 18.460938 L 49.296875 13.476562 L 55.601562 -9.59375 L 73.839844 -4.609375 L 70.140625 13.933594 L 9.753906 1.882812 L 23.175781 -47.21875 L 72.746094 -35.988281 L 68.566406 -17.550781 L 50.328125 -22.535156 L 57.355469 -48.242188 L 75.59375 -43.257812 L 72.234375 -24.648438 L 19.742188 -34.125 L 33.269531 -83.609375 L 91.023438 -69.980469 L 86.679688 -51.578125 L 68.441406 -56.5625 L 75.886719 -83.800781 L 94.125 -78.8125 L 89.53125 -60.472656 L 24.394531 -76.78125 L 28.988281 -95.125 L 47.226562 -90.140625 Z M 21.019531 5.746094 "/></g></g></g><g fill="#ffffff" fill-opacity="1"><g transform="translate(282.636049, 174.355972)"><g><path d="M 42.90625 -110.273438 L 88.011719 -96.890625 L 46.898438 5.113281 L -8.0625 -9.859375 L 25.050781 -115.570312 Z M 32.148438 -74.019531 L 37.527344 -92.148438 L 55.570312 -86.496094 L 33.894531 -17.289062 L 15.851562 -22.941406 L 20.820312 -41.1875 L 40.617188 -35.792969 L 35.648438 -17.550781 L 18.109375 -24.617188 L 45.164062 -91.746094 L 62.703125 -84.679688 L 57.324219 -66.550781 Z M -9.402344 -13.609375 C -5.773438 -23.757812 0.136719 -30.292969 8.335938 -33.214844 L 14.683594 -15.402344 L 7.929688 -33.0625 C 14.765625 -35.679688 22.6875 -35.378906 31.691406 -32.160156 C 36.8125 -30.328125 40.964844 -28.03125 44.152344 -25.269531 L 44.648438 -24.839844 L 45.109375 -24.378906 C 48.875 -20.632812 51.351562 -16.382812 52.535156 -11.636719 C 53.578125 -7.457031 53.644531 -3.230469 52.726562 1.046875 C 52.25 3.289062 51.625 5.480469 50.859375 7.625 C 50.046875 9.898438 49.113281 12.078125 48.0625 14.164062 L 47.800781 14.675781 L 47.511719 15.175781 C 45.238281 19.0625 42.277344 22.214844 38.621094 24.628906 L 28.195312 8.855469 L 39.214844 24.222656 C 34.839844 27.355469 29.800781 29.003906 24.085938 29.160156 L 23.566406 10.257812 L 24.609375 29.136719 C 20.089844 29.386719 15.140625 28.550781 9.757812 26.628906 C 4.480469 24.742188 0.207031 22.167969 -3.070312 18.90625 L 10.269531 5.507812 L -2.113281 19.792969 C -6.433594 16.050781 -9.289062 11.582031 -10.683594 6.386719 L 7.578125 1.484375 L -10.484375 7.074219 C -11.78125 2.890625 -12.074219 -1.421875 -11.367188 -5.871094 C -10.992188 -8.40625 -10.339844 -10.988281 -9.402344 -13.609375 Z M 26.207031 -0.882812 C 26.113281 -0.609375 26.035156 -0.289062 25.980469 0.078125 C 26.195312 -1.28125 26.082031 -2.675781 25.640625 -4.105469 L 25.746094 -3.765625 L 25.839844 -3.417969 C 25.230469 -5.679688 24.171875 -7.464844 22.65625 -8.78125 L 23.148438 -8.351562 L 23.609375 -7.894531 C 23.046875 -8.453125 22.515625 -8.875 22.015625 -9.160156 L 21.992188 -9.175781 C 22.121094 -9.117188 22.289062 -9.054688 22.488281 -8.980469 C 23.070312 -8.773438 23.511719 -8.640625 23.804688 -8.582031 C 23.515625 -8.640625 23.085938 -8.652344 22.519531 -8.621094 L 22.78125 -8.632812 L 23.042969 -8.640625 C 21.039062 -8.585938 19.085938 -7.875 17.179688 -6.511719 L 17.472656 -6.722656 L 17.773438 -6.917969 C 16.523438 -6.09375 15.550781 -5.085938 14.855469 -3.898438 L 31.183594 5.640625 L 14.304688 -2.886719 C 14.648438 -3.566406 14.964844 -4.308594 15.25 -5.105469 C 15.453125 -5.675781 15.617188 -6.261719 15.746094 -6.863281 C 15.441406 -5.425781 15.472656 -3.964844 15.84375 -2.472656 C 16.359375 -0.414062 17.222656 1.21875 18.429688 2.421875 L 31.769531 -10.980469 L 19.382812 3.308594 C 19.792969 3.660156 20.109375 3.898438 20.335938 4.015625 C 20.039062 3.859375 19.582031 3.671875 18.960938 3.449219 C 18.117188 3.148438 17.578125 2.984375 17.351562 2.964844 C 18.539062 3.082031 19.902344 2.84375 21.441406 2.257812 L 21.035156 2.40625 C 23.242188 1.621094 24.953125 0.4375 26.167969 -1.140625 C 26.347656 -1.375 26.46875 -1.554688 26.535156 -1.675781 C 26.445312 -1.503906 26.335938 -1.238281 26.207031 -0.882812 Z M 26.207031 -0.882812 "/></g></g></g><g fill="#000000" fill-opacity="1"><g transform="translate(43.701534, 141.205536)"><g><path d="M 1.4375 0 L 1.71875 -99.40625 L 33.5625 -100.75 L 29.015625 -20.953125 L 64.3125 -23.75 L 64.25 0.171875 Z M 1.4375 0 "/></g></g></g><g fill="#000000" fill-opacity="1"><g transform="translate(106.797583, 141.818886)"><g><path d="M 41.078125 -98.015625 L 29.75 2.25 L 3.296875 0.25 L 10.359375 -98.90625 Z M 41.078125 -98.015625 "/></g></g></g><g fill="#000000" fill-opacity="1"><g transform="translate(140.347466, 143.346118)"><g><path d="M 13.015625 -63.28125 L 18.5 -97.703125 L 92.578125 -87.34375 L 87.5 -52.859375 L 66.953125 -55.703125 L 57.046875 9.09375 L 25.1875 4.015625 L 36.125 -60.03125 Z M 13.015625 -63.28125 "/></g></g></g><g fill="#000000" fill-opacity="1"><g transform="translate(215.121365, 155.248014)"><g><path d="M 2.765625 0.765625 L 28.96875 -95.125 L 94.125 -78.828125 L 86.671875 -51.578125 L 46.6875 -61.015625 L 43.421875 -49.0625 L 75.59375 -43.25 L 68.578125 -17.546875 L 36.640625 -24.78125 L 33.34375 -12.6875 L 73.84375 -4.625 L 67.53125 18.453125 Z M 2.765625 0.765625 "/></g></g></g><g fill="#000000" fill-opacity="1"><g transform="translate(282.636049, 174.355972)"><g><path d="M 37.53125 -92.15625 L 62.703125 -84.671875 L 35.65625 -17.546875 L 15.84375 -22.9375 Z M 8.40625 -7.25 C 10.019531 -11.769531 12.113281 -14.488281 14.6875 -15.40625 C 17.164062 -16.363281 20.710938 -16.015625 25.328125 -14.359375 C 28.222656 -13.328125 30.367188 -12.195312 31.765625 -10.96875 C 33.046875 -9.695312 33.859375 -8.390625 34.203125 -7.046875 C 34.523438 -5.710938 34.535156 -4.332031 34.234375 -2.90625 C 33.929688 -1.476562 33.535156 -0.0859375 33.046875 1.265625 C 32.492188 2.804688 31.875 4.265625 31.1875 5.640625 C 30.394531 6.992188 29.398438 8.0625 28.203125 8.84375 C 26.972656 9.726562 25.425781 10.203125 23.5625 10.265625 C 21.582031 10.359375 19.101562 9.875 16.125 8.8125 C 13.5 7.875 11.550781 6.773438 10.28125 5.515625 C 8.882812 4.296875 7.984375 2.953125 7.578125 1.484375 C 7.148438 0.117188 7.0625 -1.34375 7.3125 -2.90625 C 7.519531 -4.351562 7.882812 -5.800781 8.40625 -7.25 Z M 8.40625 -7.25 "/></g></g></g></g></g></g><g clip-path="url(#d2239a5114)"><g transform="matrix(1, 0, 0, 1, 0, 0)"><g clip-path="url(#2438bf3821)"><g clip-path="url(#05b84a1399)"><g fill="#ffffff" fill-opacity="1"><g transform="translate(15.870319, 93.300262)"><g><path d="M -1.589844 -79.1875 L 22.882812 -81.625 L 24.136719 -69.039062 L 11.511719 -68.277344 C 11.46875 -68.941406 11.480469 -69.601562 11.542969 -70.257812 C 11.644531 -71.285156 11.863281 -72.285156 12.207031 -73.253906 C 12.605469 -74.390625 13.15625 -75.445312 13.855469 -76.425781 C 15.1875 -78.285156 16.902344 -79.683594 18.996094 -80.613281 C 21.558594 -81.757812 24.210938 -82.015625 26.949219 -81.390625 C 28.640625 -81.007812 30.1875 -80.304688 31.59375 -79.28125 C 32.726562 -78.453125 33.695312 -77.46875 34.5 -76.320312 C 34.957031 -75.667969 35.351562 -74.976562 35.679688 -74.25 C 35.910156 -73.742188 36.109375 -73.203125 36.289062 -72.628906 C 36.371094 -72.355469 36.472656 -71.992188 36.597656 -71.535156 C 36.777344 -70.863281 37.042969 -69.828125 37.394531 -68.441406 L 40.0625 -57.867188 C 41.164062 -53.441406 42.421875 -48.488281 43.839844 -43.011719 C 45.203125 -37.429688 46.617188 -31.96875 48.070312 -26.632812 L 35.867188 -23.300781 L 23.285156 -24.617188 L 29.136719 -80.65625 L 77.800781 -85.394531 L 87.785156 7.394531 L 43.207031 10.074219 L 35.90625 -43.695312 L 48.441406 -45.394531 L 61.0625 -44.488281 L 57.316406 7.644531 L 24.726562 11.472656 L 8.570312 -39.929688 L 20.640625 -43.722656 L 33.277344 -44.253906 L 35.574219 10.535156 L -10.277344 13.292969 L -13.382812 -78.015625 Z M 0.917969 -54.011719 L -0.335938 -66.601562 L 12.308594 -67.03125 L 14.566406 -0.546875 L 1.925781 -0.117188 L 1.164062 -12.742188 L 21.65625 -13.976562 L 22.414062 -1.347656 L 9.777344 -0.816406 L 8 -43.195312 L 32.707031 -47.515625 L 45.722656 -6.105469 L 33.652344 -2.3125 L 32.179688 -14.878906 L 43.972656 -16.261719 L 45.445312 -3.699219 L 32.828125 -4.605469 L 35.824219 -46.300781 L 60.976562 -47.097656 L 66.699219 -4.957031 L 54.164062 -3.257812 L 53.402344 -15.886719 L 73.027344 -17.066406 L 73.789062 -4.4375 L 61.210938 -3.085938 L 53.984375 -70.234375 L 66.5625 -71.589844 L 67.789062 -58.996094 L 41.871094 -56.472656 L 40.648438 -69.066406 L 53.230469 -67.75 L 48.449219 -21.988281 L 23.664062 -19.972656 C 22.148438 -25.527344 20.707031 -31.09375 19.34375 -36.675781 C 17.90625 -42.230469 16.636719 -47.230469 15.527344 -51.679688 L 12.871094 -62.222656 C 12.546875 -63.496094 12.3125 -64.414062 12.160156 -64.972656 C 12.128906 -65.085938 12.105469 -65.175781 12.085938 -65.242188 C 12.082031 -65.257812 12.078125 -65.269531 12.078125 -65.277344 C 12.082031 -65.257812 12.089844 -65.230469 12.101562 -65.199219 C 12.234375 -64.757812 12.410156 -64.300781 12.621094 -63.835938 C 12.945312 -63.121094 13.332031 -62.4375 13.785156 -61.789062 C 14.589844 -60.644531 15.558594 -59.65625 16.691406 -58.832031 C 18.09375 -57.808594 19.640625 -57.105469 21.332031 -56.722656 C 24.070312 -56.097656 26.71875 -56.359375 29.285156 -57.5 C 31.375 -58.429688 33.089844 -59.828125 34.421875 -61.6875 C 35.121094 -62.664062 35.671875 -63.722656 36.070312 -64.855469 C 36.414062 -65.824219 36.632812 -66.820312 36.730469 -67.84375 C 36.792969 -68.496094 36.804688 -69.148438 36.765625 -69.796875 L 37.496094 -57.65625 Z M 0.917969 -54.011719 "/></g></g></g></g><g fill="#ffffff" fill-opacity="1"><g transform="translate(88.937541, 89.331231)"><g><path d="M -10.722656 -0.195312 L -9.292969 -79.0625 L 60.933594 -79.300781 L 60.136719 -35.277344 L 20.445312 -34.601562 L 20.230469 -47.253906 L 32.878906 -47.023438 L 32.730469 -38.738281 L 20.078125 -38.964844 L 19.191406 -51.585938 L 54.792969 -54.085938 L 54 -10.339844 L 20.007812 -9.457031 L 19.679688 -22.105469 L 32.328125 -21.875 L 32.175781 -13.492188 L 19.527344 -13.71875 L 18.871094 -26.355469 L 60.015625 -28.484375 L 59.25 13.726562 L -10.949219 12.453125 Z M 14.574219 0.265625 L 1.925781 0.0351562 L 2.15625 -12.613281 L 47.0625 -11.800781 L 46.832031 0.847656 L 34.183594 0.617188 L 34.472656 -15.378906 L 47.121094 -15.148438 L 47.773438 -2.515625 L 6.632812 -0.386719 L 7.25 -34.4375 L 41.242188 -35.316406 L 41.570312 -22.671875 L 28.921875 -22.898438 L 29.242188 -40.726562 L 41.890625 -40.5 L 42.78125 -27.878906 L 7.179688 -25.375 L 7.800781 -59.695312 L 47.496094 -60.367188 L 47.710938 -47.71875 L 35.0625 -47.949219 L 35.402344 -66.835938 L 48.050781 -66.605469 L 48.09375 -53.957031 L 3.171875 -53.804688 L 3.128906 -66.453125 L 15.777344 -66.226562 Z M 14.574219 0.265625 "/></g></g></g><g fill="#ffffff" fill-opacity="1"><g transform="translate(135.338148, 90.002516)"><g><path d="M 70.332031 -61.910156 L 67.113281 -21.601562 L 23.070312 -2.90625 L 18.128906 -14.550781 L 16.003906 -27.023438 L 68.375 -35.945312 L 63.910156 17.984375 L -10.328125 11.839844 L -6.917969 -31.75 L 2.875 -33.351562 C 2.46875 -33.285156 2.175781 -33.222656 2 -33.164062 C 2.230469 -33.242188 2.5625 -33.367188 3 -33.542969 C 4.070312 -34 5.457031 -34.597656 7.160156 -35.339844 C 8.773438 -36.046875 10.558594 -36.863281 12.519531 -37.792969 C 14.570312 -38.742188 16.617188 -39.699219 18.65625 -40.667969 C 23.414062 -42.941406 28.652344 -45.5 34.375 -48.34375 L 40.007812 -37.015625 L 39.882812 -24.363281 L -7.992188 -24.839844 L -4.414062 -79.179688 L 71.359375 -74.800781 Z M 45.109375 -63.921875 L 57.722656 -62.914062 L 56.992188 -50.285156 L 6.652344 -53.195312 L 7.382812 -65.828125 L 20.007812 -64.996094 L 18.132812 -36.523438 L 5.511719 -37.355469 L 5.636719 -50.007812 L 40.132812 -49.664062 L 45.636719 -25.683594 C 39.796875 -22.78125 34.417969 -20.160156 29.511719 -17.816406 C 27.390625 -16.808594 25.34375 -15.847656 23.375 -14.9375 C 21.171875 -13.890625 19.136719 -12.960938 17.273438 -12.148438 C 15.5 -11.375 13.878906 -10.675781 12.410156 -10.054688 C 10.214844 -9.175781 8.402344 -8.621094 6.964844 -8.382812 L 4.917969 -20.867188 L 17.53125 -19.882812 L 15.878906 1.257812 L 3.265625 0.269531 L 4.308594 -12.335938 L 53.390625 -8.273438 L 52.347656 4.335938 L 39.738281 3.289062 L 41.816406 -21.777344 L 54.421875 -20.734375 L 56.546875 -8.261719 L 20.253906 -2.082031 L 13.1875 -26.199219 L 50.171875 -41.894531 L 55.113281 -30.25 L 42.503906 -31.257812 Z M 45.109375 -63.921875 "/></g></g></g><g fill="#ffffff" fill-opacity="1"><g transform="translate(187.147028, 94.154242)"><g><path d="M -4.386719 -42.019531 C -3.769531 -46.027344 -2.910156 -49.867188 -1.808594 -53.539062 C -0.417969 -58.53125 2.09375 -62.925781 5.722656 -66.722656 C 9.550781 -70.625 14.460938 -73.398438 20.460938 -75.042969 C 25.828125 -76.511719 32.507812 -76.792969 40.511719 -75.890625 L 40.761719 -75.859375 L 43.109375 -75.5 C 50.472656 -74.367188 56.433594 -72.1875 60.988281 -68.960938 L 61.238281 -68.78125 C 65.84375 -65.347656 69.230469 -61.238281 71.386719 -56.453125 L 71.460938 -56.285156 L 71.53125 -56.117188 C 73.394531 -51.648438 74.285156 -46.878906 74.203125 -41.8125 C 74.140625 -37.929688 73.816406 -34.085938 73.230469 -30.277344 L 71.148438 -14.839844 C 70.535156 -10.832031 69.71875 -7 68.710938 -3.34375 C 67.160156 1.917969 64.664062 6.414062 61.21875 10.140625 C 57.378906 14.25 52.40625 17.136719 46.300781 18.808594 C 40.675781 20.308594 33.816406 20.4375 25.714844 19.191406 C 17.910156 17.992188 11.6875 15.800781 7.042969 12.617188 C 2.007812 9.222656 -1.660156 5.015625 -3.960938 -0.00390625 C -6.050781 -4.433594 -7.097656 -9.28125 -7.097656 -14.550781 C -7.109375 -18.257812 -6.9375 -21.980469 -6.578125 -25.726562 L -6.554688 -25.972656 L -4.421875 -41.789062 Z M 20.652344 -38.402344 L 18.550781 -22.832031 L 6.015625 -24.523438 L 18.609375 -23.324219 C 18.332031 -20.40625 18.195312 -17.480469 18.203125 -14.554688 C 18.203125 -13.0625 18.484375 -11.726562 19.039062 -10.546875 C 19.367188 -9.832031 20.136719 -9.070312 21.34375 -8.253906 C 21.902344 -7.871094 22.742188 -7.492188 23.867188 -7.113281 C 25.425781 -6.59375 27.324219 -6.160156 29.5625 -5.816406 C 34.164062 -5.105469 37.519531 -5.035156 39.621094 -5.59375 C 41.117188 -6.003906 42.125 -6.484375 42.640625 -7.039062 C 43.40625 -7.867188 43.96875 -8.882812 44.324219 -10.085938 C 45.070312 -12.789062 45.652344 -15.503906 46.074219 -18.226562 L 48.222656 -34.121094 C 48.636719 -36.792969 48.863281 -39.492188 48.90625 -42.222656 C 48.933594 -43.773438 48.6875 -45.160156 48.179688 -46.382812 L 59.855469 -51.25 L 48.324219 -46.050781 C 47.960938 -46.851562 47.226562 -47.667969 46.117188 -48.492188 L 53.679688 -58.636719 L 46.367188 -48.3125 C 45.871094 -48.664062 45.144531 -49.003906 44.1875 -49.339844 C 42.835938 -49.808594 41.195312 -50.195312 39.261719 -50.492188 L 37.164062 -50.816406 L 39.089844 -63.316406 L 37.667969 -50.746094 C 32.890625 -51.289062 29.382812 -51.253906 27.144531 -50.640625 C 25.542969 -50.203125 24.496094 -49.730469 24.003906 -49.230469 C 23.296875 -48.492188 22.769531 -47.5 22.421875 -46.261719 C 21.660156 -43.71875 21.058594 -41.023438 20.621094 -38.171875 Z M 34.109375 -26.5625 C 33.539062 -26.601562 33.113281 -26.609375 32.828125 -26.589844 C 33.078125 -26.609375 33.4375 -26.699219 33.914062 -26.863281 C 35.140625 -27.316406 36.164062 -27.945312 36.992188 -28.753906 C 37.683594 -29.433594 38.207031 -30.171875 38.5625 -30.972656 L 38.488281 -30.804688 L 38.410156 -30.636719 C 38.441406 -30.703125 38.460938 -30.75 38.46875 -30.777344 C 38.449219 -30.710938 38.421875 -30.625 38.394531 -30.507812 C 38.285156 -30.089844 38.191406 -29.554688 38.109375 -28.90625 C 37.785156 -26.367188 37.335938 -23.234375 36.765625 -19.503906 C 36.445312 -17.433594 36.195312 -15.617188 36.011719 -14.046875 C 35.972656 -13.699219 35.953125 -13.421875 35.957031 -13.21875 C 35.957031 -13.199219 35.957031 -13.183594 35.957031 -13.167969 C 35.957031 -13.171875 35.957031 -13.179688 35.957031 -13.1875 C 35.949219 -13.253906 35.9375 -13.335938 35.917969 -13.429688 C 35.855469 -13.769531 35.699219 -14.195312 35.445312 -14.710938 C 35.0625 -15.480469 34.554688 -16.179688 33.914062 -16.804688 C 33.144531 -17.554688 32.324219 -18.109375 31.445312 -18.472656 C 31.136719 -18.597656 30.90625 -18.675781 30.761719 -18.695312 L 31.621094 -18.566406 L 29.699219 -6.0625 L 30.8125 -18.664062 C 30.96875 -18.648438 31.09375 -18.640625 31.195312 -18.640625 C 31.210938 -18.640625 31.21875 -18.640625 31.21875 -18.640625 C 31.195312 -18.640625 31.160156 -18.636719 31.121094 -18.632812 C 30.59375 -18.582031 30.003906 -18.417969 29.355469 -18.136719 L 29.621094 -18.253906 L 29.898438 -18.355469 C 28.96875 -18.007812 28.132812 -17.5 27.386719 -16.832031 C 26.761719 -16.269531 26.257812 -15.652344 25.882812 -14.972656 L 36.953125 -8.847656 L 25.699219 -14.625 C 25.65625 -14.542969 25.625 -14.472656 25.601562 -14.417969 C 25.605469 -14.433594 25.617188 -14.464844 25.632812 -14.511719 C 25.710938 -14.761719 25.789062 -15.085938 25.867188 -15.492188 C 26.1875 -17.171875 26.550781 -19.128906 26.960938 -21.367188 C 27.628906 -24.871094 28.179688 -27.800781 28.605469 -30.164062 C 28.867188 -31.601562 28.980469 -32.617188 28.949219 -33.210938 C 28.960938 -32.953125 29.03125 -32.621094 29.15625 -32.21875 C 29.445312 -31.28125 29.929688 -30.386719 30.609375 -29.542969 L 40.476562 -37.460938 L 31.328125 -28.722656 C 32.15625 -27.851562 33.070312 -27.203125 34.070312 -26.777344 C 34.453125 -26.613281 34.757812 -26.515625 34.984375 -26.480469 L 34.03125 -26.625 C 34.539062 -26.546875 35.046875 -26.519531 35.554688 -26.542969 L 34.832031 -26.511719 Z M 35.863281 -51.800781 L 34.988281 -39.179688 L 34.421875 -51.820312 C 35.582031 -51.871094 36.734375 -51.808594 37.875 -51.632812 L 38.828125 -51.488281 C 43.316406 -50.796875 46.914062 -49.035156 49.621094 -46.199219 L 50 -45.804688 L 50.339844 -45.378906 C 52.695312 -42.441406 53.988281 -38.832031 54.214844 -34.542969 C 54.351562 -31.992188 54.113281 -29.03125 53.503906 -25.660156 C 53.0625 -23.214844 52.511719 -20.269531 51.851562 -16.828125 C 51.429688 -14.511719 51.050781 -12.488281 50.71875 -10.757812 C 50.15625 -7.796875 49.316406 -5.234375 48.207031 -3.066406 L 48.117188 -2.890625 L 48.019531 -2.71875 C 47.015625 -0.902344 45.765625 0.671875 44.269531 2.011719 C 42.660156 3.457031 40.835938 4.558594 38.804688 5.324219 L 34.351562 -6.515625 L 39.347656 5.105469 C 36.277344 6.425781 32.691406 6.902344 28.582031 6.539062 L 28.175781 6.503906 L 26.917969 6.3125 C 22.53125 5.636719 18.976562 3.96875 16.25 1.3125 C 13.542969 -1.328125 11.835938 -4.5625 11.121094 -8.394531 C 10.59375 -10.992188 10.515625 -13.847656 10.878906 -16.964844 C 11.097656 -18.84375 11.390625 -20.972656 11.757812 -23.351562 C 12.296875 -26.859375 12.710938 -29.769531 13.003906 -32.074219 C 13.476562 -35.796875 14.339844 -38.96875 15.605469 -41.597656 L 27.007812 -36.117188 L 15.449219 -41.261719 C 16.402344 -43.402344 17.683594 -45.261719 19.292969 -46.835938 C 21.039062 -48.542969 23.144531 -49.855469 25.613281 -50.765625 C 28.410156 -51.738281 31.828125 -52.082031 35.863281 -51.800781 Z M 35.863281 -51.800781 "/></g></g></g><g fill="#000000" fill-opacity="1"><g transform="translate(15.870319, 93.300262)"><g><path d="M -0.328125 -66.59375 L 24.140625 -69.03125 C 24.128906 -69.21875 24.460938 -67.984375 25.140625 -65.328125 C 25.816406 -62.660156 26.695312 -59.140625 27.78125 -54.765625 C 28.882812 -50.335938 30.148438 -45.363281 31.578125 -39.84375 C 32.953125 -34.257812 34.382812 -28.75 35.875 -23.3125 L 40.65625 -69.0625 L 66.5625 -71.59375 L 73.78125 -4.4375 L 54.171875 -3.25 L 48.4375 -45.390625 L 45.4375 -3.703125 L 33.65625 -2.328125 L 20.625 -43.71875 L 22.40625 -1.34375 L 1.921875 -0.109375 Z M -0.328125 -66.59375 "/></g></g></g><g fill="#000000" fill-opacity="1"><g transform="translate(88.937541, 89.331231)"><g><path d="M 1.921875 0.03125 L 3.125 -66.453125 L 48.046875 -66.609375 L 47.703125 -47.71875 L 20.234375 -47.25 L 20.09375 -38.984375 L 41.90625 -40.5 L 41.578125 -22.671875 L 19.6875 -22.109375 L 19.53125 -13.734375 L 47.125 -15.15625 L 46.828125 0.84375 Z M 1.921875 0.03125 "/></g></g></g><g fill="#000000" fill-opacity="1"><g transform="translate(135.338148, 90.002516)"><g><path d="M 57.71875 -62.921875 L 55.109375 -30.234375 L 18.109375 -14.5625 L 54.4375 -20.734375 L 52.359375 4.328125 L 3.265625 0.265625 L 4.921875 -20.859375 C 5.441406 -20.941406 6.367188 -21.253906 7.703125 -21.796875 C 8.960938 -22.335938 10.46875 -22.988281 12.21875 -23.75 C 13.945312 -24.5 15.859375 -25.367188 17.953125 -26.359375 C 19.953125 -27.296875 21.992188 -28.253906 24.078125 -29.234375 C 28.921875 -31.535156 34.226562 -34.128906 40 -37.015625 L 5.5 -37.359375 L 7.390625 -65.828125 Z M 57.71875 -62.921875 "/></g></g></g><g fill="#000000" fill-opacity="1"><g transform="translate(187.147028, 94.154242)"><g><path d="M 8.125 -40.09375 C 8.644531 -43.519531 9.375 -46.789062 10.3125 -49.90625 C 11.1875 -53.019531 12.703125 -55.710938 14.859375 -57.984375 C 17.023438 -60.179688 20.003906 -61.800781 23.796875 -62.84375 C 27.609375 -63.882812 32.707031 -64.039062 39.09375 -63.3125 L 41.1875 -62.984375 C 46.59375 -62.148438 50.753906 -60.703125 53.671875 -58.640625 C 56.535156 -56.515625 58.597656 -54.050781 59.859375 -51.25 C 61.046875 -48.394531 61.609375 -45.316406 61.546875 -42.015625 C 61.492188 -38.710938 61.21875 -35.441406 60.71875 -32.203125 L 58.625 -16.53125 C 58.101562 -13.164062 57.398438 -9.894531 56.515625 -6.71875 C 55.554688 -3.476562 54.03125 -0.71875 51.9375 1.5625 C 49.75 3.882812 46.757812 5.566406 42.96875 6.609375 C 39.101562 7.628906 33.992188 7.65625 27.640625 6.6875 C 21.742188 5.769531 17.257812 4.269531 14.1875 2.1875 C 11.0625 0.0820312 8.847656 -2.398438 7.546875 -5.265625 C 6.210938 -8.078125 5.550781 -11.175781 5.5625 -14.5625 C 5.539062 -17.875 5.691406 -21.191406 6.015625 -24.515625 Z M 35 -39.1875 C 32.675781 -39.332031 30.929688 -39.207031 29.765625 -38.8125 C 28.523438 -38.351562 27.601562 -37.453125 27 -36.109375 C 26.34375 -34.722656 25.863281 -32.847656 25.5625 -30.484375 C 25.25 -28.054688 24.816406 -25.035156 24.265625 -21.421875 C 23.921875 -19.191406 23.648438 -17.222656 23.453125 -15.515625 C 23.222656 -13.722656 23.25 -12.1875 23.53125 -10.90625 C 23.769531 -9.570312 24.285156 -8.515625 25.078125 -7.734375 C 25.867188 -6.960938 27.117188 -6.445312 28.828125 -6.1875 L 29.703125 -6.046875 C 31.691406 -5.878906 33.234375 -6.03125 34.328125 -6.5 C 35.441406 -6.925781 36.316406 -7.707031 36.953125 -8.84375 C 37.503906 -9.925781 37.945312 -11.351562 38.28125 -13.125 C 38.613281 -14.820312 38.988281 -16.8125 39.40625 -19.09375 C 40.070312 -22.570312 40.617188 -25.515625 41.046875 -27.921875 C 41.492188 -30.316406 41.671875 -32.296875 41.578125 -33.859375 C 41.503906 -35.441406 41.132812 -36.640625 40.46875 -37.453125 C 39.738281 -38.210938 38.546875 -38.722656 36.890625 -38.984375 L 35.953125 -39.125 C 35.628906 -39.175781 35.3125 -39.195312 35 -39.1875 Z M 35 -39.1875 "/></g></g></g></g></g></g></g></g></svg>